<?xml version="1.0" encoding="UTF-8"?>
<svg version="1.1" xmlns="http://www.w3.org/2000/svg" width="60" height="56">
<path d="M0 0 C19.8 0 39.6 0 60 0 C60 18.48 60 36.96 60 56 C40.2 56 20.4 56 0 56 C0 37.52 0 19.04 0 0 Z " fill="#020203" transform="translate(0,0)"/>
<path d="M0 0 C1.98 0 3.96 0 6 0 C6 4.62 6 9.24 6 14 C10.5270284 12.49099053 12.43465773 8.43774183 14.9765625 4.57226562 C16.234375 2.80859375 16.234375 2.80859375 19 0 C22.828125 -0.40234375 22.828125 -0.40234375 26 0 C24.09549299 4.43377294 20.91536336 7.37202767 17.58203125 10.78125 C15.75166451 12.81344171 15.75166451 12.81344171 16.25830078 14.92504883 C17.02772592 17.07756504 17.92894627 18.58477431 19.28515625 20.41796875 C19.73310547 21.03220703 20.18105469 21.64644531 20.64257812 22.27929688 C21.11115234 22.90900391 21.57972656 23.53871094 22.0625 24.1875 C27 30.88983629 27 30.88983629 27 32 C22.78871979 32.87735004 22.78871979 32.87735004 20 32 C16.41524533 28.50391417 13.24605965 24.49211929 11 20 C9.35 19.67 7.7 19.34 6 19 C6 23.29 6 27.58 6 32 C4.02 32 2.04 32 0 32 C0 21.44 0 10.88 0 0 Z " fill="#F5F5F5" transform="translate(25,12)"/>
<path d="M0 0 C1.98 0 3.96 0 6 0 C6 10.89 6 21.78 6 33 C4.02 33 2.04 33 0 33 C0 22.11 0 11.22 0 0 Z " fill="#E8E8E8" transform="translate(7,11)"/>
</svg>
